<?xml version="1.0" encoding="UTF-8" standalone="no"?>
<!DOCTYPE svg PUBLIC "-//W3C//DTD SVG 1.1//EN"
 "http://www.w3.org/Graphics/SVG/1.1/DTD/svg11.dtd">
<!-- Generated by graphviz version 12.2.1 (20250203.1708)
 -->
<!-- Title: snakemake_dag Pages: 1 -->
<svg width="552pt" height="404pt"
 viewBox="0.00 0.00 551.50 404.00" xmlns="http://www.w3.org/2000/svg" xmlns:xlink="http://www.w3.org/1999/xlink">
<g id="graph0" class="graph" transform="scale(1 1) rotate(0) translate(4 400)">
<title>snakemake_dag</title>
<polygon fill="white" stroke="none" points="-4,4 -4,-400 547.5,-400 547.5,4 -4,4"/>
<!-- 0 -->
<g id="node1" class="node">
<title>0</title>
<path fill="none" stroke="#d85656" stroke-width="2" d="M349.62,-36C349.62,-36 319.62,-36 319.62,-36 313.62,-36 307.62,-30 307.62,-24 307.62,-24 307.62,-12 307.62,-12 307.62,-6 313.62,0 319.62,0 319.62,0 349.62,0 349.62,0 355.62,0 361.62,-6 361.62,-12 361.62,-12 361.62,-24 361.62,-24 361.62,-30 355.62,-36 349.62,-36"/>
<text text-anchor="middle" x="334.62" y="-14.88" font-family="sans" font-size="10.00">all</text>
</g>
<!-- 1 -->
<g id="node2" class="node">
<title>1</title>
<path fill="none" stroke="#c6d856" stroke-width="2" d="M460.75,-108C460.75,-108 334.5,-108 334.5,-108 328.5,-108 322.5,-102 322.5,-96 322.5,-96 322.5,-84 322.5,-84 322.5,-78 328.5,-72 334.5,-72 334.5,-72 460.75,-72 460.75,-72 466.75,-72 472.75,-78 472.75,-84 472.75,-84 472.75,-96 472.75,-96 472.75,-102 466.75,-108 460.75,-108"/>
<text text-anchor="middle" x="397.62" y="-86.88" font-family="sans" font-size="10.00">bakta_proteins_blast_index</text>
</g>
<!-- 1&#45;&gt;0 -->
<g id="edge1" class="edge">
<title>1&#45;&gt;0</title>
<path fill="none" stroke="grey" stroke-width="2" d="M381.73,-71.34C374.92,-63.77 366.8,-54.75 359.24,-46.35"/>
<polygon fill="grey" stroke="grey" stroke-width="2" points="362.05,-44.24 352.76,-39.15 356.85,-48.93 362.05,-44.24"/>
</g>
<!-- 2 -->
<g id="node3" class="node">
<title>2</title>
<path fill="none" stroke="#d8a456" stroke-width="2" d="M443.25,-252C443.25,-252 308,-252 308,-252 302,-252 296,-246 296,-240 296,-240 296,-228 296,-228 296,-222 302,-216 308,-216 308,-216 443.25,-216 443.25,-216 449.25,-216 455.25,-222 455.25,-228 455.25,-228 455.25,-240 455.25,-240 455.25,-246 449.25,-252 443.25,-252"/>
<text text-anchor="middle" x="375.62" y="-230.88" font-family="sans" font-size="10.00">bakta_add_protein_metadata</text>
</g>
<!-- 2&#45;&gt;1 -->
<g id="edge5" class="edge">
<title>2&#45;&gt;1</title>
<path fill="none" stroke="grey" stroke-width="2" d="M378.41,-215.02C382.05,-191.54 388.47,-150.11 392.88,-121.64"/>
<polygon fill="grey" stroke="grey" stroke-width="2" points="396.33,-122.25 394.4,-111.83 389.41,-121.18 396.33,-122.25"/>
</g>
<!-- 3 -->
<g id="node4" class="node">
<title>3</title>
<path fill="none" stroke="#d87d56" stroke-width="2" d="M390.62,-324C390.62,-324 360.62,-324 360.62,-324 354.62,-324 348.62,-318 348.62,-312 348.62,-312 348.62,-300 348.62,-300 348.62,-294 354.62,-288 360.62,-288 360.62,-288 390.62,-288 390.62,-288 396.62,-288 402.62,-294 402.62,-300 402.62,-300 402.62,-312 402.62,-312 402.62,-318 396.62,-324 390.62,-324"/>
<text text-anchor="middle" x="375.62" y="-302.88" font-family="sans" font-size="10.00">bakta</text>
</g>
<!-- 3&#45;&gt;2 -->
<g id="edge6" class="edge">
<title>3&#45;&gt;2</title>
<path fill="none" stroke="grey" stroke-width="2" d="M375.62,-287.34C375.62,-280.75 375.62,-273.08 375.62,-265.67"/>
<polygon fill="grey" stroke="grey" stroke-width="2" points="379.13,-265.93 375.63,-255.93 372.13,-265.93 379.13,-265.93"/>
</g>
<!-- 5 -->
<g id="node6" class="node">
<title>5</title>
<path fill="none" stroke="#9fd856" stroke-width="2" d="M515.62,-252C515.62,-252 485.62,-252 485.62,-252 479.62,-252 473.62,-246 473.62,-240 473.62,-240 473.62,-228 473.62,-228 473.62,-222 479.62,-216 485.62,-216 485.62,-216 515.62,-216 515.62,-216 521.62,-216 527.62,-222 527.62,-228 527.62,-228 527.62,-240 527.62,-240 527.62,-246 521.62,-252 515.62,-252"/>
<text text-anchor="middle" x="500.62" y="-230.88" font-family="sans" font-size="10.00">busco</text>
</g>
<!-- 3&#45;&gt;5 -->
<g id="edge9" class="edge">
<title>3&#45;&gt;5</title>
<path fill="none" stroke="grey" stroke-width="2" d="M403.37,-289.46C420.52,-279.86 442.8,-267.38 461.7,-256.8"/>
<polygon fill="grey" stroke="grey" stroke-width="2" points="463.3,-259.91 470.32,-251.97 459.88,-253.8 463.3,-259.91"/>
</g>
<!-- 12 -->
<g id="node13" class="node">
<title>12</title>
<path fill="none" stroke="#56d8a2" stroke-width="2" d="M186.25,-252C186.25,-252 63,-252 63,-252 57,-252 51,-246 51,-240 51,-240 51,-228 51,-228 51,-222 57,-216 63,-216 63,-216 186.25,-216 186.25,-216 192.25,-216 198.25,-222 198.25,-228 198.25,-228 198.25,-240 198.25,-240 198.25,-246 192.25,-252 186.25,-252"/>
<text text-anchor="middle" x="124.62" y="-230.88" font-family="sans" font-size="10.00">extract_protein_sequences</text>
</g>
<!-- 3&#45;&gt;12 -->
<g id="edge16" class="edge">
<title>3&#45;&gt;12</title>
<path fill="none" stroke="grey" stroke-width="2" d="M347.8,-297.24C312.74,-287.46 251.05,-270.26 201.4,-256.41"/>
<polygon fill="grey" stroke="grey" stroke-width="2" points="202.55,-253.1 191.98,-253.78 200.67,-259.84 202.55,-253.1"/>
</g>
<!-- 4 -->
<g id="node5" class="node">
<title>4</title>
<path fill="none" stroke="#d8c356" stroke-width="2" d="M394.12,-396C394.12,-396 357.12,-396 357.12,-396 351.12,-396 345.12,-390 345.12,-384 345.12,-384 345.12,-372 345.12,-372 345.12,-366 351.12,-360 357.12,-360 357.12,-360 394.12,-360 394.12,-360 400.12,-360 406.12,-366 406.12,-372 406.12,-372 406.12,-384 406.12,-384 406.12,-390 400.12,-396 394.12,-396"/>
<text text-anchor="middle" x="375.62" y="-374.88" font-family="sans" font-size="10.00">bakta_db</text>
</g>
<!-- 4&#45;&gt;3 -->
<g id="edge7" class="edge">
<title>4&#45;&gt;3</title>
<path fill="none" stroke="grey" stroke-width="2" d="M375.62,-359.34C375.62,-352.75 375.62,-345.08 375.62,-337.67"/>
<polygon fill="grey" stroke="grey" stroke-width="2" points="379.13,-337.93 375.63,-327.93 372.13,-337.93 379.13,-337.93"/>
</g>
<!-- 5&#45;&gt;0 -->
<g id="edge2" class="edge">
<title>5&#45;&gt;0</title>
<path fill="none" stroke="grey" stroke-width="2" d="M504.08,-215.02C509.21,-182.64 514.97,-113.99 481.62,-72 456.01,-39.74 409.06,-27.1 375.1,-22.16"/>
<polygon fill="grey" stroke="grey" stroke-width="2" points="375.71,-18.71 365.35,-20.95 374.84,-25.66 375.71,-18.71"/>
</g>
<!-- 6 -->
<g id="node7" class="node">
<title>6</title>
<path fill="none" stroke="#78d856" stroke-width="2" d="M531.5,-324C531.5,-324 469.75,-324 469.75,-324 463.75,-324 457.75,-318 457.75,-312 457.75,-312 457.75,-300 457.75,-300 457.75,-294 463.75,-288 469.75,-288 469.75,-288 531.5,-288 531.5,-288 537.5,-288 543.5,-294 543.5,-300 543.5,-300 543.5,-312 543.5,-312 543.5,-318 537.5,-324 531.5,-324"/>
<text text-anchor="middle" x="500.62" y="-302.88" font-family="sans" font-size="10.00">busco_lineage</text>
</g>
<!-- 6&#45;&gt;5 -->
<g id="edge8" class="edge">
<title>6&#45;&gt;5</title>
<path fill="none" stroke="grey" stroke-width="2" d="M500.62,-287.34C500.62,-280.75 500.62,-273.08 500.62,-265.67"/>
<polygon fill="grey" stroke="grey" stroke-width="2" points="504.13,-265.93 500.63,-255.93 497.13,-265.93 504.13,-265.93"/>
</g>
<!-- 7 -->
<g id="node8" class="node">
<title>7</title>
<path fill="none" stroke="#567bd8" stroke-width="2" d="M292.38,-108C292.38,-108 250.88,-108 250.88,-108 244.88,-108 238.88,-102 238.88,-96 238.88,-96 238.88,-84 238.88,-84 238.88,-78 244.88,-72 250.88,-72 250.88,-72 292.38,-72 292.38,-72 298.38,-72 304.38,-78 304.38,-84 304.38,-84 304.38,-96 304.38,-96 304.38,-102 298.38,-108 292.38,-108"/>
<text text-anchor="middle" x="271.62" y="-86.88" font-family="sans" font-size="10.00">skani_plot</text>
</g>
<!-- 7&#45;&gt;0 -->
<g id="edge3" class="edge">
<title>7&#45;&gt;0</title>
<path fill="none" stroke="grey" stroke-width="2" d="M287.52,-71.34C294.33,-63.77 302.45,-54.75 310.01,-46.35"/>
<polygon fill="grey" stroke="grey" stroke-width="2" points="312.4,-48.93 316.49,-39.15 307.2,-44.24 312.4,-48.93"/>
</g>
<!-- 8 -->
<g id="node9" class="node">
<title>8</title>
<path fill="none" stroke="#56a2d8" stroke-width="2" d="M326.62,-180C326.62,-180 296.62,-180 296.62,-180 290.62,-180 284.62,-174 284.62,-168 284.62,-168 284.62,-156 284.62,-156 284.62,-150 290.62,-144 296.62,-144 296.62,-144 326.62,-144 326.62,-144 332.62,-144 338.62,-150 338.62,-156 338.62,-156 338.62,-168 338.62,-168 338.62,-174 332.62,-180 326.62,-180"/>
<text text-anchor="middle" x="311.62" y="-158.88" font-family="sans" font-size="10.00">skani</text>
</g>
<!-- 8&#45;&gt;7 -->
<g id="edge11" class="edge">
<title>8&#45;&gt;7</title>
<path fill="none" stroke="grey" stroke-width="2" d="M301.53,-143.34C297.49,-136.26 292.72,-127.92 288.2,-120"/>
<polygon fill="grey" stroke="grey" stroke-width="2" points="291.36,-118.48 283.36,-111.53 285.28,-121.95 291.36,-118.48"/>
</g>
<!-- 9 -->
<g id="node10" class="node">
<title>9</title>
<path fill="none" stroke="#56c9d8" stroke-width="2" d="M254.62,-180C254.62,-180 224.62,-180 224.62,-180 218.62,-180 212.62,-174 212.62,-168 212.62,-168 212.62,-156 212.62,-156 212.62,-150 218.62,-144 224.62,-144 224.62,-144 254.62,-144 254.62,-144 260.62,-144 266.62,-150 266.62,-156 266.62,-156 266.62,-168 266.62,-168 266.62,-174 260.62,-180 254.62,-180"/>
<text text-anchor="middle" x="239.62" y="-158.88" font-family="sans" font-size="10.00">gtdbtk</text>
</g>
<!-- 9&#45;&gt;7 -->
<g id="edge10" class="edge">
<title>9&#45;&gt;7</title>
<path fill="none" stroke="grey" stroke-width="2" d="M247.7,-143.34C250.86,-136.43 254.57,-128.31 258.11,-120.56"/>
<polygon fill="grey" stroke="grey" stroke-width="2" points="261.21,-122.2 262.18,-111.65 254.84,-119.29 261.21,-122.2"/>
</g>
<!-- 11 -->
<g id="node12" class="node">
<title>11</title>
<path fill="none" stroke="#56d87b" stroke-width="2" d="M208.88,-108C208.88,-108 122.38,-108 122.38,-108 116.38,-108 110.38,-102 110.38,-96 110.38,-96 110.38,-84 110.38,-84 110.38,-78 116.38,-72 122.38,-72 122.38,-72 208.88,-72 208.88,-72 214.88,-72 220.88,-78 220.88,-84 220.88,-84 220.88,-96 220.88,-96 220.88,-102 214.88,-108 208.88,-108"/>
<text text-anchor="middle" x="165.62" y="-86.88" font-family="sans" font-size="10.00">combine_metadata</text>
</g>
<!-- 9&#45;&gt;11 -->
<g id="edge14" class="edge">
<title>9&#45;&gt;11</title>
<path fill="none" stroke="grey" stroke-width="2" d="M220.95,-143.34C212.78,-135.6 203,-126.36 193.96,-117.81"/>
<polygon fill="grey" stroke="grey" stroke-width="2" points="196.42,-115.31 186.75,-110.98 191.61,-120.4 196.42,-115.31"/>
</g>
<!-- 10 -->
<g id="node11" class="node">
<title>10</title>
<path fill="none" stroke="#56d8c9" stroke-width="2" d="M258.62,-252C258.62,-252 228.62,-252 228.62,-252 222.62,-252 216.62,-246 216.62,-240 216.62,-240 216.62,-228 216.62,-228 216.62,-222 222.62,-216 228.62,-216 228.62,-216 258.62,-216 258.62,-216 264.62,-216 270.62,-222 270.62,-228 270.62,-228 270.62,-240 270.62,-240 270.62,-246 264.62,-252 258.62,-252"/>
<text text-anchor="middle" x="243.62" y="-230.88" font-family="sans" font-size="10.00">gtdb</text>
</g>
<!-- 10&#45;&gt;9 -->
<g id="edge12" class="edge">
<title>10&#45;&gt;9</title>
<path fill="none" stroke="grey" stroke-width="2" d="M242.62,-215.34C242.24,-208.75 241.8,-201.08 241.38,-193.67"/>
<polygon fill="grey" stroke="grey" stroke-width="2" points="244.89,-193.71 240.82,-183.92 237.9,-194.11 244.89,-193.71"/>
</g>
<!-- 11&#45;&gt;0 -->
<g id="edge4" class="edge">
<title>11&#45;&gt;0</title>
<path fill="none" stroke="grey" stroke-width="2" d="M208.71,-71.15C235.18,-60.19 268.86,-46.24 294.72,-35.53"/>
<polygon fill="grey" stroke="grey" stroke-width="2" points="296.03,-38.77 303.93,-31.71 293.35,-32.31 296.03,-38.77"/>
</g>
<!-- 12&#45;&gt;11 -->
<g id="edge15" class="edge">
<title>12&#45;&gt;11</title>
<path fill="none" stroke="grey" stroke-width="2" d="M134.87,-215.39C140.31,-205.32 146.67,-192.29 150.62,-180 156.73,-161.05 160.47,-138.99 162.69,-121.58"/>
<polygon fill="grey" stroke="grey" stroke-width="2" points="166.15,-122.09 163.81,-111.76 159.19,-121.3 166.15,-122.09"/>
</g>
<!-- 13 -->
<g id="node14" class="node">
<title>13</title>
<path fill="none" stroke="#59d856" stroke-width="2" d="M129.25,-180C129.25,-180 12,-180 12,-180 6,-180 0,-174 0,-168 0,-168 0,-156 0,-156 0,-150 6,-144 12,-144 12,-144 129.25,-144 129.25,-144 135.25,-144 141.25,-150 141.25,-156 141.25,-156 141.25,-168 141.25,-168 141.25,-174 135.25,-180 129.25,-180"/>
<text text-anchor="middle" x="70.62" y="-158.88" font-family="sans" font-size="10.00">check_protein_sequences</text>
</g>
<!-- 12&#45;&gt;13 -->
<g id="edge17" class="edge">
<title>12&#45;&gt;13</title>
<path fill="none" stroke="grey" stroke-width="2" d="M111,-215.34C105.35,-208.01 98.66,-199.34 92.36,-191.18"/>
<polygon fill="grey" stroke="grey" stroke-width="2" points="95.16,-189.08 86.28,-183.3 89.62,-193.35 95.16,-189.08"/>
</g>
<!-- 13&#45;&gt;11 -->
<g id="edge13" class="edge">
<title>13&#45;&gt;11</title>
<path fill="none" stroke="grey" stroke-width="2" d="M94.6,-143.34C105.65,-135.19 118.98,-125.37 131.09,-116.45"/>
<polygon fill="grey" stroke="grey" stroke-width="2" points="132.92,-119.45 138.89,-110.7 128.77,-113.81 132.92,-119.45"/>
</g>
</g>
</svg>
